<mxfile host="app.diagrams.net" agent="Mozilla/5.0 (Windows NT 10.0; Win64; x64) AppleWebKit/537.36 (KHTML, like Gecko) Chrome/139.0.0.0 Safari/537.36 Edg/139.0.0.0" version="28.2.3">
  <diagram name="Page-1" id="XJQzdTubCrK1rBcKPcMS">
    <mxGraphModel dx="778" dy="506" grid="0" gridSize="10" guides="1" tooltips="1" connect="1" arrows="1" fold="1" page="1" pageScale="1" pageWidth="850" pageHeight="1100" math="0" shadow="0">
      <root>
        <mxCell id="0" />
        <mxCell id="1" parent="0" />
        <mxCell id="s0ba7kLXqi5IzmDwBceu-1" value="" style="outlineConnect=0;dashed=0;verticalLabelPosition=bottom;verticalAlign=top;align=center;html=1;shape=mxgraph.aws3.sqs;fillColor=#D9A741;gradientColor=none;" parent="1" vertex="1">
          <mxGeometry x="80" y="230" width="50" height="60" as="geometry" />
        </mxCell>
        <mxCell id="s0ba7kLXqi5IzmDwBceu-2" value="" style="outlineConnect=0;dashed=0;verticalLabelPosition=bottom;verticalAlign=top;align=center;html=1;shape=mxgraph.aws3.lambda_function;fillColor=#F58534;gradientColor=none;" parent="1" vertex="1">
          <mxGeometry x="221" y="230" width="50" height="56" as="geometry" />
        </mxCell>
        <mxCell id="s0ba7kLXqi5IzmDwBceu-3" value="" style="outlineConnect=0;dashed=0;verticalLabelPosition=bottom;verticalAlign=top;align=center;html=1;shape=mxgraph.aws3.api_gateway;fillColor=#D9A741;gradientColor=none;" parent="1" vertex="1">
          <mxGeometry x="427" y="226" width="60" height="60" as="geometry" />
        </mxCell>
        <mxCell id="s0ba7kLXqi5IzmDwBceu-4" value="" style="outlineConnect=0;dashed=0;verticalLabelPosition=bottom;verticalAlign=top;align=center;html=1;shape=mxgraph.aws3.dynamo_db;fillColor=#2E73B8;gradientColor=none;" parent="1" vertex="1">
          <mxGeometry x="377" y="80" width="40" height="51" as="geometry" />
        </mxCell>
        <mxCell id="s0ba7kLXqi5IzmDwBceu-5" value="" style="outlineConnect=0;dashed=0;verticalLabelPosition=bottom;verticalAlign=top;align=center;html=1;shape=mxgraph.aws3.dynamo_db;fillColor=#2E73B8;gradientColor=none;" parent="1" vertex="1">
          <mxGeometry x="377" y="360" width="40" height="51" as="geometry" />
        </mxCell>
        <mxCell id="s0ba7kLXqi5IzmDwBceu-6" value="" style="outlineConnect=0;dashed=0;verticalLabelPosition=bottom;verticalAlign=top;align=center;html=1;shape=mxgraph.aws3.lambda_function;fillColor=#F58534;gradientColor=none;" parent="1" vertex="1">
          <mxGeometry x="630" y="232" width="50" height="56" as="geometry" />
        </mxCell>
        <mxCell id="s0ba7kLXqi5IzmDwBceu-7" value="" style="outlineConnect=0;dashed=0;verticalLabelPosition=bottom;verticalAlign=top;align=center;html=1;shape=mxgraph.aws3.dynamo_db;fillColor=#2E73B8;gradientColor=none;" parent="1" vertex="1">
          <mxGeometry x="517" y="80" width="40" height="51" as="geometry" />
        </mxCell>
        <mxCell id="s0ba7kLXqi5IzmDwBceu-8" value="" style="outlineConnect=0;dashed=0;verticalLabelPosition=bottom;verticalAlign=top;align=center;html=1;shape=mxgraph.aws3.dynamo_db;fillColor=#2E73B8;gradientColor=none;" parent="1" vertex="1">
          <mxGeometry x="517" y="360" width="40" height="51" as="geometry" />
        </mxCell>
        <mxCell id="s0ba7kLXqi5IzmDwBceu-9" value="ATIS Parser Lambda" style="text;html=1;align=center;verticalAlign=middle;whiteSpace=wrap;rounded=0;" parent="1" vertex="1">
          <mxGeometry x="212" y="290" width="74" height="30" as="geometry" />
        </mxCell>
        <mxCell id="s0ba7kLXqi5IzmDwBceu-10" value="ATIS Parser Lambda" style="text;html=1;align=center;verticalAlign=middle;whiteSpace=wrap;rounded=0;" parent="1" vertex="1">
          <mxGeometry x="617" y="292" width="74" height="30" as="geometry" />
        </mxCell>
        <mxCell id="s0ba7kLXqi5IzmDwBceu-11" value="atis_parser_sqs" style="text;whiteSpace=wrap;" parent="1" vertex="1">
          <mxGeometry x="50" y="293" width="120" height="40" as="geometry" />
        </mxCell>
        <mxCell id="s0ba7kLXqi5IzmDwBceu-12" value="" style="outlineConnect=0;dashed=0;verticalLabelPosition=bottom;verticalAlign=top;align=center;html=1;shape=mxgraph.aws3.sqs;fillColor=#D9A741;gradientColor=none;" parent="1" vertex="1">
          <mxGeometry x="748" y="231" width="50" height="60" as="geometry" />
        </mxCell>
        <mxCell id="s0ba7kLXqi5IzmDwBceu-13" value="atis_parser_sqs" style="text;whiteSpace=wrap;" parent="1" vertex="1">
          <mxGeometry x="725" y="294" width="120" height="40" as="geometry" />
        </mxCell>
        <mxCell id="s0ba7kLXqi5IzmDwBceu-14" value="" style="endArrow=classic;html=1;rounded=0;" parent="1" edge="1">
          <mxGeometry width="50" height="50" relative="1" as="geometry">
            <mxPoint x="280" y="240" as="sourcePoint" />
            <mxPoint x="420" y="240" as="targetPoint" />
          </mxGeometry>
        </mxCell>
        <mxCell id="s0ba7kLXqi5IzmDwBceu-15" value="" style="endArrow=classic;html=1;rounded=0;" parent="1" edge="1">
          <mxGeometry width="50" height="50" relative="1" as="geometry">
            <mxPoint x="140" y="260" as="sourcePoint" />
            <mxPoint x="210" y="260" as="targetPoint" />
          </mxGeometry>
        </mxCell>
        <mxCell id="s0ba7kLXqi5IzmDwBceu-16" value="" style="endArrow=classic;html=1;rounded=0;" parent="1" edge="1">
          <mxGeometry width="50" height="50" relative="1" as="geometry">
            <mxPoint x="420" y="280" as="sourcePoint" />
            <mxPoint x="280" y="280" as="targetPoint" />
          </mxGeometry>
        </mxCell>
        <mxCell id="s0ba7kLXqi5IzmDwBceu-17" value="" style="endArrow=classic;html=1;rounded=0;" parent="1" edge="1">
          <mxGeometry width="50" height="50" relative="1" as="geometry">
            <mxPoint x="630" y="240" as="sourcePoint" />
            <mxPoint x="490" y="240" as="targetPoint" />
          </mxGeometry>
        </mxCell>
        <mxCell id="s0ba7kLXqi5IzmDwBceu-18" value="" style="endArrow=classic;html=1;rounded=0;" parent="1" edge="1">
          <mxGeometry width="50" height="50" relative="1" as="geometry">
            <mxPoint x="492" y="280" as="sourcePoint" />
            <mxPoint x="632" y="280" as="targetPoint" />
          </mxGeometry>
        </mxCell>
        <mxCell id="s0ba7kLXqi5IzmDwBceu-19" value="" style="endArrow=classic;html=1;rounded=0;" parent="1" edge="1">
          <mxGeometry width="50" height="50" relative="1" as="geometry">
            <mxPoint x="740" y="260" as="sourcePoint" />
            <mxPoint x="690" y="260" as="targetPoint" />
          </mxGeometry>
        </mxCell>
        <mxCell id="s0ba7kLXqi5IzmDwBceu-23" value="ATIS_DATA" style="text;html=1;align=center;verticalAlign=middle;whiteSpace=wrap;rounded=0;" parent="1" vertex="1">
          <mxGeometry x="371" y="128" width="60" height="30" as="geometry" />
        </mxCell>
        <mxCell id="s0ba7kLXqi5IzmDwBceu-24" value="ATIS_DATA" style="text;html=1;align=center;verticalAlign=middle;whiteSpace=wrap;rounded=0;" parent="1" vertex="1">
          <mxGeometry x="511" y="126" width="60" height="30" as="geometry" />
        </mxCell>
        <mxCell id="s0ba7kLXqi5IzmDwBceu-25" value="WMO_FAILURE" style="text;html=1;align=center;verticalAlign=middle;whiteSpace=wrap;rounded=0;" parent="1" vertex="1">
          <mxGeometry x="367" y="420" width="60" height="30" as="geometry" />
        </mxCell>
        <mxCell id="s0ba7kLXqi5IzmDwBceu-26" value="WMO_FAILURE" style="text;html=1;align=center;verticalAlign=middle;whiteSpace=wrap;rounded=0;" parent="1" vertex="1">
          <mxGeometry x="510" y="418" width="60" height="30" as="geometry" />
        </mxCell>
        <mxCell id="s0ba7kLXqi5IzmDwBceu-27" value="" style="endArrow=classic;html=1;rounded=0;entryX=-0.133;entryY=-0.017;entryDx=0;entryDy=0;entryPerimeter=0;" parent="1" target="s0ba7kLXqi5IzmDwBceu-23" edge="1">
          <mxGeometry width="50" height="50" relative="1" as="geometry">
            <mxPoint x="260" y="220" as="sourcePoint" />
            <mxPoint x="323" y="165" as="targetPoint" />
          </mxGeometry>
        </mxCell>
        <mxCell id="s0ba7kLXqi5IzmDwBceu-28" value="" style="endArrow=classic;html=1;rounded=0;entryX=1;entryY=0.5;entryDx=0;entryDy=0;" parent="1" edge="1">
          <mxGeometry width="50" height="50" relative="1" as="geometry">
            <mxPoint x="650" y="220" as="sourcePoint" />
            <mxPoint x="580" y="121" as="targetPoint" />
          </mxGeometry>
        </mxCell>
        <mxCell id="s0ba7kLXqi5IzmDwBceu-30" value="" style="endArrow=classic;html=1;rounded=0;exitX=1;exitY=0.75;exitDx=0;exitDy=0;" parent="1" source="s0ba7kLXqi5IzmDwBceu-9" edge="1">
          <mxGeometry width="50" height="50" relative="1" as="geometry">
            <mxPoint x="293" y="348" as="sourcePoint" />
            <mxPoint x="510" y="370" as="targetPoint" />
          </mxGeometry>
        </mxCell>
        <mxCell id="s0ba7kLXqi5IzmDwBceu-33" value="" style="endArrow=classic;html=1;rounded=0;exitX=0;exitY=0.5;exitDx=0;exitDy=0;" parent="1" source="s0ba7kLXqi5IzmDwBceu-10" edge="1">
          <mxGeometry width="50" height="50" relative="1" as="geometry">
            <mxPoint x="468" y="344" as="sourcePoint" />
            <mxPoint x="420" y="370" as="targetPoint" />
          </mxGeometry>
        </mxCell>
        <mxCell id="s0ba7kLXqi5IzmDwBceu-35" value="ATIS Parser" style="text;html=1;align=center;verticalAlign=middle;whiteSpace=wrap;rounded=0;fontStyle=1" parent="1" vertex="1">
          <mxGeometry x="343" y="9" width="250" height="30" as="geometry" />
        </mxCell>
        <mxCell id="s0ba7kLXqi5IzmDwBceu-36" value="Success" style="text;html=1;align=center;verticalAlign=middle;whiteSpace=wrap;rounded=0;rotation=-40;" parent="1" vertex="1">
          <mxGeometry x="267" y="154" width="60" height="30" as="geometry" />
        </mxCell>
        <mxCell id="s0ba7kLXqi5IzmDwBceu-37" value="Success" style="text;html=1;align=center;verticalAlign=middle;whiteSpace=wrap;rounded=0;rotation=60;" parent="1" vertex="1">
          <mxGeometry x="597.6231474388674" y="155.77429493738083" width="60" height="30" as="geometry" />
        </mxCell>
        <mxCell id="s0ba7kLXqi5IzmDwBceu-38" value="Retry Service" style="rounded=1;whiteSpace=wrap;html=1;" parent="1" vertex="1">
          <mxGeometry x="147" y="360" width="120" height="60" as="geometry" />
        </mxCell>
        <mxCell id="s0ba7kLXqi5IzmDwBceu-41" value="" style="edgeStyle=segmentEdgeStyle;endArrow=classic;html=1;curved=0;rounded=0;endSize=8;startSize=8;entryX=0.421;entryY=0.913;entryDx=0;entryDy=0;entryPerimeter=0;" parent="1" target="s0ba7kLXqi5IzmDwBceu-11" edge="1">
          <mxGeometry width="50" height="50" relative="1" as="geometry">
            <mxPoint x="140" y="400" as="sourcePoint" />
            <mxPoint x="100" y="340" as="targetPoint" />
          </mxGeometry>
        </mxCell>
        <mxCell id="s0ba7kLXqi5IzmDwBceu-42" value="" style="endArrow=classic;html=1;rounded=0;" parent="1" edge="1">
          <mxGeometry width="50" height="50" relative="1" as="geometry">
            <mxPoint x="272" y="410" as="sourcePoint" />
            <mxPoint x="360" y="410" as="targetPoint" />
          </mxGeometry>
        </mxCell>
        <mxCell id="s0ba7kLXqi5IzmDwBceu-43" value="" style="endArrow=classic;html=1;rounded=0;" parent="1" edge="1">
          <mxGeometry width="50" height="50" relative="1" as="geometry">
            <mxPoint x="370" y="370" as="sourcePoint" />
            <mxPoint x="270" y="370" as="targetPoint" />
          </mxGeometry>
        </mxCell>
        <mxCell id="s0ba7kLXqi5IzmDwBceu-44" value="Retry Service" style="rounded=1;whiteSpace=wrap;html=1;" parent="1" vertex="1">
          <mxGeometry x="699" y="373" width="120" height="60" as="geometry" />
        </mxCell>
        <mxCell id="s0ba7kLXqi5IzmDwBceu-45" value="" style="endArrow=classic;html=1;rounded=0;entryX=0;entryY=0;entryDx=0;entryDy=0;" parent="1" target="s0ba7kLXqi5IzmDwBceu-44" edge="1">
          <mxGeometry width="50" height="50" relative="1" as="geometry">
            <mxPoint x="570" y="370" as="sourcePoint" />
            <mxPoint x="678" y="380" as="targetPoint" />
          </mxGeometry>
        </mxCell>
        <mxCell id="s0ba7kLXqi5IzmDwBceu-46" value="" style="endArrow=classic;html=1;rounded=0;exitX=0.6;exitY=-0.033;exitDx=0;exitDy=0;exitPerimeter=0;entryX=0.308;entryY=0.813;entryDx=0;entryDy=0;entryPerimeter=0;" parent="1" target="s0ba7kLXqi5IzmDwBceu-13" edge="1">
          <mxGeometry width="50" height="50" relative="1" as="geometry">
            <mxPoint x="761" y="375.02" as="sourcePoint" />
            <mxPoint x="770.4113405440839" y="334" as="targetPoint" />
          </mxGeometry>
        </mxCell>
        <mxCell id="s0ba7kLXqi5IzmDwBceu-48" value="" style="endArrow=classic;html=1;rounded=0;exitX=0;exitY=0.5;exitDx=0;exitDy=0;" parent="1" edge="1">
          <mxGeometry width="50" height="50" relative="1" as="geometry">
            <mxPoint x="699" y="401" as="sourcePoint" />
            <mxPoint x="573" y="399" as="targetPoint" />
          </mxGeometry>
        </mxCell>
        <mxCell id="s0ba7kLXqi5IzmDwBceu-49" value="1" style="ellipse;whiteSpace=wrap;html=1;aspect=fixed;rotation=0;gradientColor=#223548;strokeColor=none;gradientDirection=east;fillColor=#5b738b;rounded=0;pointerEvents=0;fontFamily=Helvetica;fontSize=16;fontColor=#FFFFFF;spacingTop=4;spacingBottom=4;spacingLeft=4;spacingRight=4;points=[];fontStyle=1" parent="1" vertex="1">
          <mxGeometry x="151" y="240" width="19" height="19" as="geometry" />
        </mxCell>
        <mxCell id="s0ba7kLXqi5IzmDwBceu-50" value="2" style="ellipse;whiteSpace=wrap;html=1;aspect=fixed;rotation=0;gradientColor=#223548;strokeColor=none;gradientDirection=east;fillColor=#5b738b;rounded=0;pointerEvents=0;fontFamily=Helvetica;fontSize=16;fontColor=#FFFFFF;spacingTop=4;spacingBottom=4;spacingLeft=4;spacingRight=4;points=[];fontStyle=1" parent="1" vertex="1">
          <mxGeometry x="338" y="220" width="16" height="16" as="geometry" />
        </mxCell>
        <mxCell id="s0ba7kLXqi5IzmDwBceu-51" value="3" style="ellipse;whiteSpace=wrap;html=1;aspect=fixed;rotation=0;gradientColor=#223548;strokeColor=none;gradientDirection=east;fillColor=#5b738b;rounded=0;pointerEvents=0;fontFamily=Helvetica;fontSize=16;fontColor=#FFFFFF;spacingTop=4;spacingBottom=4;spacingLeft=4;spacingRight=4;points=[];fontStyle=1" parent="1" vertex="1">
          <mxGeometry x="337" y="260" width="20" height="20" as="geometry" />
        </mxCell>
        <mxCell id="s0ba7kLXqi5IzmDwBceu-52" value="1" style="ellipse;whiteSpace=wrap;html=1;aspect=fixed;rotation=0;gradientColor=#223548;strokeColor=none;gradientDirection=east;fillColor=#5b738b;rounded=0;pointerEvents=0;fontFamily=Helvetica;fontSize=16;fontColor=#FFFFFF;spacingTop=4;spacingBottom=4;spacingLeft=4;spacingRight=4;points=[];fontStyle=1" parent="1" vertex="1">
          <mxGeometry x="707" y="239" width="19" height="19" as="geometry" />
        </mxCell>
        <mxCell id="s0ba7kLXqi5IzmDwBceu-53" value="2" style="ellipse;whiteSpace=wrap;html=1;aspect=fixed;rotation=0;gradientColor=#223548;strokeColor=none;gradientDirection=east;fillColor=#5b738b;rounded=0;pointerEvents=0;fontFamily=Helvetica;fontSize=16;fontColor=#FFFFFF;spacingTop=4;spacingBottom=4;spacingLeft=4;spacingRight=4;points=[];fontStyle=1" parent="1" vertex="1">
          <mxGeometry x="547" y="218" width="20" height="20" as="geometry" />
        </mxCell>
        <mxCell id="s0ba7kLXqi5IzmDwBceu-54" value="3" style="ellipse;whiteSpace=wrap;html=1;aspect=fixed;rotation=0;gradientColor=#223548;strokeColor=none;gradientDirection=east;fillColor=#5b738b;rounded=0;pointerEvents=0;fontFamily=Helvetica;fontSize=16;fontColor=#FFFFFF;spacingTop=4;spacingBottom=4;spacingLeft=4;spacingRight=4;points=[];fontStyle=1" parent="1" vertex="1">
          <mxGeometry x="547" y="260" width="20" height="20" as="geometry" />
        </mxCell>
        <mxCell id="s0ba7kLXqi5IzmDwBceu-55" value="Failure" style="text;html=1;align=center;verticalAlign=middle;whiteSpace=wrap;rounded=0;rotation=15;" parent="1" vertex="1">
          <mxGeometry x="337" y="308" width="60" height="30" as="geometry" />
        </mxCell>
        <mxCell id="s0ba7kLXqi5IzmDwBceu-56" value="Failure" style="text;html=1;align=center;verticalAlign=middle;whiteSpace=wrap;rounded=0;rotation=-20;" parent="1" vertex="1">
          <mxGeometry x="509.57000000000005" y="307.47" width="77.14" height="30" as="geometry" />
        </mxCell>
        <mxCell id="jEZvGeoOks8BfHwgp4Ao-1" value="US-EAST-1" style="text;html=1;align=center;verticalAlign=middle;whiteSpace=wrap;rounded=0;" vertex="1" parent="1">
          <mxGeometry x="136" y="108" width="68" height="30" as="geometry" />
        </mxCell>
        <mxCell id="jEZvGeoOks8BfHwgp4Ao-2" value="US-WEST-2" style="text;html=1;align=center;verticalAlign=middle;whiteSpace=wrap;rounded=0;" vertex="1" parent="1">
          <mxGeometry x="694" y="107" width="68" height="30" as="geometry" />
        </mxCell>
        <mxCell id="jEZvGeoOks8BfHwgp4Ao-3" value="Airport Reference API" style="text;html=1;align=center;verticalAlign=middle;whiteSpace=wrap;rounded=0;" vertex="1" parent="1">
          <mxGeometry x="392" y="191" width="125" height="30" as="geometry" />
        </mxCell>
      </root>
    </mxGraphModel>
  </diagram>
</mxfile>
